<?xml version="1.0" encoding="UTF-8"?>
<svg width="11px" height="7px" viewBox="0 0 11 7" version="1.1" xmlns="http://www.w3.org/2000/svg" xmlns:xlink="http://www.w3.org/1999/xlink">
    <!-- Generator: Sketch 53.2 (72643) - https://sketchapp.com -->
    <title>路径 copy 5</title>
    <desc>Created with Sketch.</desc>
    <g id="Page-1" stroke="none" stroke-width="1" fill="none" fill-rule="evenodd">
        <g id="聚合告警" transform="translate(-346.000000, -760.000000)" fill="#98ACD9" fill-rule="nonzero">
            <g id="表格" transform="translate(240.000000, 386.000000)">
                <g transform="translate(30.000000, 161.000000)" id="展开箭头">
                    <g transform="translate(76.000000, 69.000000)">
                        <path d="M5.37478846,148.472708 L1.16313973,144.258134 C0.903244504,143.99107 0.478100565,143.980102 0.204812755,144.23341 C0.0754208038,144.35848 0.0016341654,144.53035 2.68171391e-05,144.710415 C-0.00158053112,144.890479 0.0691261645,145.063642 0.196264744,145.191008 L4.89989897,149.897219 C4.91621468,149.913291 4.93333261,149.928526 4.95118704,149.942865 L4.96828306,149.955227 C4.98063018,149.964736 4.99297731,149.974246 5.00627422,149.982804 L5.02811913,149.995166 L5.06421073,150.016087 L5.08795521,150.027498 L5.12404681,150.044615 L5.14874106,150.053174 L5.18578244,150.065536 L5.21142647,150.072193 L5.24846785,150.080751 L5.27506167,150.080751 L5.31210304,150.085506 L5.46976635,150.085506 L5.50585795,150.0798 L5.53435132,150.073144 L5.56854337,150.064585 L5.59703674,150.054125 L5.630279,150.041763 L5.65877237,150.028449 L5.69011507,150.013234 L5.71765866,149.997068 L5.74710181,149.979 L5.77369562,149.959982 L5.80218899,149.939061 L5.82688325,149.917189 L5.84967794,149.896268 L10.5082017,145.147904 C10.6778634,144.978034 10.7441238,144.730444 10.6820233,144.498398 C10.6199228,144.266352 10.438896,144.085104 10.2071338,144.022927 C9.97537166,143.960751 9.72808437,144.027092 9.55842271,144.196962 L5.37478846,148.472708 Z" id="路径-copy-5"></path>
                    </g>
                </g>
            </g>
        </g>
    </g>
</svg>